<?xml version="1.0" encoding="iso-8859-1"?>
<!-- Uploaded to: SVG Repo, www.svgrepo.com, Generator: SVG Repo Mixer Tools -->
<svg height="800px" width="800px" version="1.1" id="Layer_1" xmlns="http://www.w3.org/2000/svg" xmlns:xlink="http://www.w3.org/1999/xlink" 
	 viewBox="0 0 512.158 512.158" xml:space="preserve">
<g transform="translate(1)">
	<path style="fill:#FDCC00;" d="M127.158,302.326c261.973,57.173,375.467-11.947,375.467-11.947v25.6
		c-136.533,84.48-365.227,17.92-366.933,17.067l-8.533,8.533H7.691v-42.667h82.773C102.411,298.913,115.211,299.766,127.158,302.326
		"/>
	<path style="fill:#FFE100;" d="M502.624,290.379c-2.56-16.213-25.6-25.6-25.6-25.6s-137.387-2.56-179.2-51.2
		s-85.333-59.733-85.333-59.733l-17.067,17.067C87.904,275.02,24.758,187.979,24.758,187.979
		c-32.427,49.493-8.533,110.933-8.533,110.933h74.24c11.947,0,24.747,0.853,36.693,3.413
		C389.131,359.5,502.624,290.379,502.624,290.379L502.624,290.379z"/>
	<g>
		<path style="fill:#FFFFFF;" d="M91.318,298.913h-0.853H7.691v42.667h25.6v-42.667H91.318z"/>
		<path style="fill:#FFFFFF;" d="M41.824,204.193c-11.093-7.68-17.067-16.213-17.067-16.213
			c-32.427,49.493-8.533,110.933-8.533,110.933h25.6C41.824,298.913,23.051,250.273,41.824,204.193"/>
	</g>
	<g>
		<path style="fill:#FFA800;" d="M477.024,301.473v14.507c-49.493,30.72-110.08,40.96-168.96,42.667
			c65.707,1.707,138.24-7.68,194.56-42.667v-25.6C502.624,290.379,494.091,295.5,477.024,301.473"/>
		<path style="fill:#FFA800;" d="M451.424,264.78c0,0,23.04,9.387,25.6,25.6l0,0l0,0l0,0c0,0-52.907,32.427-169.813,34.133
			c134.827,2.56,195.413-34.133,195.413-34.133c-2.56-16.213-25.6-25.6-25.6-25.6H451.424z"/>
	</g>
	<path d="M321.718,367.18c-84.48,0-160.427-18.773-183.467-24.747l-5.12,5.12c-1.707,1.707-3.413,2.56-5.973,2.56H7.691
		c-5.12,0-8.533-3.413-8.533-8.533v-42.667c0-5.12,3.413-8.533,8.533-8.533h82.773c13.653,0,26.453,1.707,38.4,4.267
		c68.267,14.507,132.267,22.187,190.293,22.187l0,0c122.027,0,178.347-33.28,179.2-33.28c2.56-1.707,5.973-1.707,8.533,0
		c2.56,1.707,4.267,4.267,4.267,7.68v25.6c0,2.56-1.707,5.973-4.267,6.827C459.958,352.673,397.664,367.18,321.718,367.18z
		 M135.691,324.513c0.853,0,1.707,0,1.707,0c15.36,4.267,94.72,25.6,183.467,25.6c70.827,0,128.853-12.8,172.373-39.253v-6.827
		c-23.893,10.24-80.213,29.013-174.933,29.013l0,0c-59.733,0-124.587-7.68-193.707-22.187c-11.093-2.56-23.04-3.413-34.987-3.413
		H16.224v25.6h107.52l5.973-5.973C131.424,325.366,133.131,324.513,135.691,324.513z"/>
	<path d="M319.158,333.046c-59.733,0-124.587-7.68-193.707-22.187c-11.093-2.56-23.04-3.413-34.987-3.413h-74.24l0,0
		c-3.413,0-6.827-2.56-7.68-5.12c-1.707-3.413-25.6-66.56,9.387-118.613c0.853-2.56,3.413-4.267,6.827-4.267
		c2.56,0,5.12,0.853,6.827,3.413c0,0,23.04,30.72,63.147,30.72c29.867,0,61.44-16.213,94.72-48.64l17.067-17.067
		c1.707-2.56,5.12-3.413,7.68-2.56c1.707,0.853,46.933,11.947,89.6,62.293c39.253,46.08,172.373,48.64,173.227,48.64
		c0.853,0,2.56,0,3.413,0.853c2.56,0.853,26.453,11.947,30.72,30.72c0,0.853,0,1.707,0,2.56c0,3.413-1.707,6.827-5.12,7.68
		C497.504,303.18,438.624,333.046,319.158,333.046z M90.464,290.379c13.653,0,26.453,1.707,38.4,4.267
		c68.267,14.507,132.267,22.187,190.293,22.187c98.987,0,154.453-21.333,172.373-29.867c-4.267-5.973-11.947-10.24-17.067-12.8
		c-17.067-0.853-141.653-5.12-183.467-53.76c-31.573-37.547-64.853-51.2-76.8-55.467l-13.653,13.653
		c-35.84,34.133-71.68,52.053-105.813,52.053c-33.28,0-56.32-17.067-68.267-28.16c-17.067,34.987-8.533,73.387-4.267,87.893H90.464z
		"/>
	<path d="M266.251,251.126L266.251,251.126c-14.507,0-28.16-5.12-39.253-14.507l-53.76-44.373c-1.707-1.707-3.413-4.267-3.413-6.827
		c0-2.56,0.853-5.12,3.413-6.827c5.973-5.12,11.093-9.387,16.213-14.507l17.067-17.067c1.707-1.707,5.12-2.56,7.68-1.707
		c1.707,0.853,46.933,11.947,89.6,62.293c2.56,2.56,5.12,5.12,8.533,8.533c2.56,1.707,3.413,3.413,4.267,5.973
		c0,2.56-0.853,4.267-1.707,5.973C302.944,242.593,285.024,251.126,266.251,251.126z M192.011,185.419l46.08,38.4
		c7.68,6.827,17.92,10.24,29.013,10.24s20.48-3.413,29.013-10.24c-1.707-1.707-2.56-2.56-4.267-4.267
		c-32.427-37.547-64.853-51.2-76.8-55.467l-13.653,13.653C197.984,180.299,195.424,182.859,192.011,185.419z"/>
	<path d="M229.558,196.513c-2.56,0-4.267-0.853-5.973-2.56c-3.413-3.413-3.413-8.533,0-11.947l17.067-17.067
		c3.413-3.413,8.533-3.413,11.947,0c3.413,3.413,3.413,8.533,0,11.947l-17.067,17.067
		C233.824,195.66,232.118,196.513,229.558,196.513z"/>
	<path d="M255.158,222.113c-2.56,0-4.267-0.853-5.973-2.56c-3.413-3.413-3.413-8.533,0-11.947l21.333-21.333
		c3.413-3.413,8.533-3.413,11.947,0c3.413,3.413,3.413,8.533,0,11.947l-21.333,21.333
		C259.424,221.259,257.718,222.113,255.158,222.113z"/>
	<path d="M121.184,234.059c-1.707,0-2.56,0-4.267-0.853c-2.56-0.853-3.413-3.413-4.267-5.12c-2.56-0.853-4.267-3.413-5.12-5.973
		c-0.853-4.267,1.707-9.387,5.973-10.24c2.56-0.853,5.12-0.853,7.68-1.707c3.413-0.853,6.827,0,8.533,2.56
		c2.56,2.56,3.413,5.973,1.707,8.533c-0.853,3.413-2.56,5.973-4.267,9.387C127.158,232.353,123.744,234.059,121.184,234.059z"/>
	<path d="M91.318,230.646L91.318,230.646c-3.413,0-6.827,0-11.093-0.853c-4.267-0.853-7.68-5.12-6.827-9.387
		c0.853-4.267,5.12-7.68,9.387-6.827c3.413,0,5.973,0,9.387,0c5.12,0,8.533,4.267,8.533,8.533
		C99.851,227.233,96.438,230.646,91.318,230.646z M58.038,222.966c-0.853,0-2.56-0.853-3.413-0.853
		c-3.413-1.707-6.827-3.413-9.387-5.12c-4.267-2.56-5.12-7.68-2.56-11.947c1.707-4.267,7.68-5.12,11.093-2.56
		c2.56,0.853,5.12,2.56,8.533,4.267c4.267,1.707,5.973,6.827,3.413,11.093C64.864,221.259,61.451,222.966,58.038,222.966z"/>
	<path d="M20.491,204.193c-1.707,0-2.56,0-4.267-0.853c-4.267-2.56-5.973-7.68-3.413-11.947c1.707-2.56,3.413-5.12,5.12-7.68
		c0.853-2.56,3.413-4.267,6.827-4.267c2.56,0,5.12,0.853,6.827,3.413c0,0,1.707,2.56,5.12,5.12c3.413,3.413,3.413,8.533,0,11.947
		s-7.68,3.413-10.24,1.707C24.758,203.339,22.198,204.193,20.491,204.193z"/>
	<path d="M7.691,254.54L7.691,254.54c-5.12,0-8.533-4.267-8.533-8.533c0-2.56,0-5.12,0-7.68c0-5.12,4.267-8.533,9.387-7.68
		c5.12,0,8.533,4.267,7.68,9.387c0,2.56,0,5.12,0,6.827C16.224,250.273,12.811,254.54,7.691,254.54z M11.104,228.086
		c-0.853,0-1.707,0-1.707,0c-5.12-0.853-7.68-5.973-6.827-10.24c0.853-2.56,1.707-5.12,2.56-7.68
		c1.707-4.267,5.973-6.827,11.093-5.973c4.267,1.707,6.827,5.973,5.973,11.093c-1.707,1.707-2.56,4.267-2.56,6.827
		C18.784,225.526,15.371,228.086,11.104,228.086z"/>
	<path d="M17.931,281.846L17.931,281.846c-3.413,0-5.973,0-9.387,0c-4.267,0-6.827-3.413-7.68-6.827
		c-0.853-2.56-0.853-5.973-0.853-8.533c0-5.973,3.413-10.24,7.68-10.24c4.267-0.853,8.533,2.56,9.387,7.68v0.853h0.853
		c5.12,0,8.533,4.267,8.533,8.533C26.464,278.433,23.051,281.846,17.931,281.846z"/>
	<path d="M49.504,279.286c-4.267,0-7.68-2.56-8.533-6.827s2.56-9.387,6.827-10.24s7.68-1.707,11.093-2.56
		c4.267-0.853,9.387,1.707,10.24,5.973c1.707,4.267-1.707,9.387-5.973,10.24s-8.533,2.56-12.8,3.413
		C50.358,279.286,49.504,279.286,49.504,279.286z M90.464,263.926c-2.56,0-5.973-1.707-7.68-4.267
		c-2.56-4.267-0.853-9.387,3.413-11.947c3.413-1.707,6.827-4.267,9.387-5.973c3.413-2.56,9.387-2.56,11.947,1.707
		c2.56,3.413,2.56,9.387-1.707,11.947c-3.413,2.56-7.68,5.12-11.093,7.68C93.024,263.926,91.318,263.926,90.464,263.926z"/>
	<path d="M206.518,168.353c-2.56,0-4.267-0.853-5.973-2.56c-3.413-3.413-3.413-8.533,0-11.947l5.973-5.973
		c1.707-2.56,5.12-3.413,7.68-2.56c0,0,3.413,0.853,9.387,3.413c4.267,1.707,6.827,6.827,5.12,11.093
		c-1.707,4.267-6.827,6.827-11.093,5.12c-0.853,0-1.707-0.853-2.56-0.853l-2.56,1.707
		C210.784,167.499,208.224,168.353,206.518,168.353z"/>
	<path d="M157.878,210.166c-2.56,0-5.973-1.707-6.827-4.267c-3.413-4.267-1.707-9.387,1.707-11.947c2.56-1.707,5.12-3.413,7.68-5.12
		c4.267-2.56,9.387-1.707,11.947,1.707c2.56,4.267,1.707,9.387-1.707,11.947c-2.56,1.707-5.12,3.413-7.68,5.12
		S159.584,210.166,157.878,210.166z M183.478,190.539c-2.56,0-5.12-0.853-6.827-2.56c-3.413-3.413-2.56-8.533,0.853-11.947
		c2.56-1.707,4.267-4.267,6.827-5.973c3.413-3.413,8.533-3.413,11.947,0.853c3.413,3.413,3.413,8.533-0.853,11.947
		c-2.56,2.56-5.12,4.267-6.827,5.973C186.891,189.686,185.184,190.539,183.478,190.539z"/>
	<path d="M132.278,232.353c-3.413,0-5.973-1.707-7.68-5.12c-1.707-3.413-2.56-5.973-3.413-9.387
		c-1.707-4.267,0.853-8.533,5.12-10.24c2.56-0.853,5.12-1.707,7.68-3.413c4.267-1.707,9.387,0,11.093,4.267
		c1.707,4.267,0,9.387-4.267,11.093l0,0c1.707,4.267,0,9.387-4.267,11.093C134.838,231.499,133.984,232.353,132.278,232.353z"/>
	<path d="M215.904,289.526c-0.853,0-1.707,0-2.56,0c-5.12-1.707-10.24-2.56-14.507-4.267s-6.827-6.827-5.12-11.093
		c1.707-4.267,6.827-6.827,11.093-5.12c4.267,1.707,9.387,3.413,13.653,4.267c4.267,0.853,6.827,5.973,5.973,10.24
		C223.584,286.966,220.171,289.526,215.904,289.526z M168.118,269.046c-1.707,0-3.413,0-4.267-1.707
		c-4.267-2.56-9.387-5.973-12.8-9.387c-3.413-2.56-4.267-8.533-1.707-11.947s8.533-4.267,11.947-1.707s7.68,5.12,11.093,7.68
		c4.267,2.56,5.12,7.68,2.56,11.947C174.091,267.34,171.531,269.046,168.118,269.046z"/>
	<path d="M304.651,298.913c-4.267,0-8.533-3.413-8.533-7.68c0-5.12,3.413-8.533,7.68-9.387c5.12,0,9.387-0.853,14.507-0.853
		c5.12-0.853,8.533,2.56,9.387,7.68c0.853,4.267-2.56,8.533-7.68,9.387C315.744,298.06,310.624,298.06,304.651,298.913
		C305.504,298.913,305.504,298.913,304.651,298.913z M267.958,298.06C267.958,298.06,267.104,298.06,267.958,298.06
		c-5.973,0-11.093-0.853-16.213-1.707c-4.267-0.853-7.68-5.12-7.68-9.387c0.853-4.267,5.12-7.68,9.387-7.68
		c5.12,0.853,9.387,0.853,14.507,1.707c5.12,0,8.533,4.267,7.68,9.387C275.638,294.646,272.224,298.06,267.958,298.06z
		 M356.704,291.233c-3.413,0-7.68-2.56-8.533-6.827c-0.853-4.267,1.707-9.387,5.973-10.24c5.12-0.853,9.387-2.56,13.653-4.267
		c4.267-1.707,9.387,0.853,11.093,5.12c1.707,4.267-0.853,9.387-5.12,11.093c-5.12,1.707-9.387,2.56-14.507,4.267
		C357.558,290.379,357.558,291.233,356.704,291.233z"/>
	<path d="M405.344,271.606c-2.56,0-5.973-1.707-7.68-4.267c-0.853-1.707-1.707-3.413-0.853-5.12
		c-0.853-1.707-1.707-3.413-0.853-5.973c0.853-4.267,5.12-7.68,9.387-6.827c2.56,0.853,5.973,0.853,8.533,1.707
		c3.413,0.853,5.973,3.413,6.827,6.827c0.853,3.413-0.853,6.827-3.413,9.387c-2.56,1.707-5.12,3.413-7.68,4.267
		C407.904,271.606,406.198,271.606,405.344,271.606z"/>
	<path d="M378.038,261.366c-0.853,0-1.707,0-1.707,0c-3.413-0.853-6.827-1.707-10.24-2.56c-4.267-0.853-6.827-5.973-5.973-10.24
		c0.853-4.267,5.973-6.827,10.24-5.973c3.413,0.853,6.827,1.707,10.24,2.56c4.267,0.853,7.68,5.973,5.973,10.24
		C384.864,257.953,381.451,261.366,378.038,261.366z M342.198,250.273c-0.853,0-1.707,0-3.413-0.853
		c-3.413-1.707-6.827-2.56-10.24-4.267c-4.267-1.707-5.973-6.827-4.267-11.093c1.707-4.267,6.827-5.973,11.093-4.267
		c3.413,1.707,5.973,2.56,9.387,4.267c4.267,1.707,6.827,6.827,5.12,11.093C348.171,247.713,345.611,250.273,342.198,250.273z"/>
	<path d="M308.918,232.353c-1.707,0-3.413-0.853-5.12-1.707c-3.413-2.56-5.973-5.12-8.533-7.68c-3.413-3.413-3.413-8.533,0-11.947
		c3.413-3.413,8.533-3.413,11.947,0c1.707,1.707,4.267,4.267,6.827,5.973c3.413,2.56,4.267,8.533,1.707,11.947
		C314.038,231.499,311.478,232.353,308.918,232.353z M282.464,205.899c-2.56,0-4.267-0.853-5.973-2.56
		c-2.56-2.56-5.12-5.12-7.68-6.827c-3.413-3.413-4.267-8.533-0.853-11.947c3.413-3.413,8.533-4.267,11.947-0.853
		c2.56,2.56,5.12,5.12,8.533,7.68c3.413,3.413,3.413,8.533,0,11.947C286.731,205.046,285.024,205.899,282.464,205.899z
		 M253.451,182.859c-1.707,0-3.413-0.853-5.12-1.707c-3.413-1.707-5.973-3.413-8.533-5.12c-4.267-2.56-5.12-7.68-3.413-11.947
		c2.56-4.267,7.68-5.12,11.947-3.413c3.413,1.707,6.827,4.267,10.24,5.973c4.267,2.56,5.12,7.68,2.56,11.947
		C259.424,181.153,256.011,182.859,253.451,182.859z"/>
</g>
</svg>